<svg xmlns="http://www.w3.org/2000/svg" xmlns:xlink="http://www.w3.org/1999/xlink" version="1.1" id="Layer_1" x="0px" y="0px" viewBox="0 0 826 265.8" style="enable-background:new 0 0 826 265.8;" xml:space="preserve">
<g id="Layer_2_00000035506873858973306180000005934489422550835083_">
	<g id="Layer_1-2">
		<path fill="#2E8626" d="M314.7,147.3h3c1.2,0,2.9-1.8,2.9-3v-40c0-1.1-1.6-2.9-2.9-2.9h-3v-13h34.7c19.1,0,29.4,6,29.4,18.5     c0,9-5.2,13.2-14.2,15.3v0.4c10.5,1.6,16.4,7.1,16.4,16.8c0,13.8-12,20.6-31.2,20.6h-35L314.7,147.3L314.7,147.3z M344,117.2h3.7     c5.7,0,8-2.7,8-7.7s-2.1-7.6-7.9-7.6H344V117.2z M348.1,146.8c6.3,0,8.7-2.9,8.7-8.8c0-5.8-2.4-8.4-8.7-8.4H344v17.2H348.1z"/>
		<path fill="#2E8626" d="M382.5,147.4h2.7c1,0,2.5-1.5,2.5-2.6V122c0-0.9-1.4-2.6-2.5-2.6h-3V106h24.7c2,0,3.2,1.8,3.2,5.2v33.7     c0,1,1.5,2.6,2.6,2.6h2.7V160h-32.7v-12.6H382.5z M388.4,94.3c0-5.8,4.3-9.7,10.3-9.7c6.1,0,10.4,3.9,10.4,9.7     c0,5.7-4.3,9.5-10.4,9.5C392.7,103.9,388.4,100.1,388.4,94.3z"/>
		<path fill="#2E8626" d="M415.7,133c0-20.5,10.5-28,21.9-28c6.8,0,10.9,2.9,14.4,7v-10.5h-5.2V88.4h24.4c2,0,3.3,1.8,3.3,4.5v52     c0,0.9,1.4,2.6,2.5,2.6h2.5V160H456c-1.5,0-2.6-1.9-3.3-4.9c-3.2,3.5-8.2,5.9-14.8,5.9C424.8,161.1,415.7,153.4,415.7,133z      M452,145.8v-24.2c-1.4-0.4-3.1-0.7-4.8-0.7c-4.9,0-8.9,2.3-8.9,12.7c0,10.9,3.8,13.8,8.2,13.8     C448.7,147.3,450.4,146.7,452,145.8z"/>
		<path fill="#0C284C" d="M481.1,147.4h3c1.2,0,2.9-1.8,2.9-3v-40c-0.3-1.5-1.4-2.6-2.9-2.9h-3V88.4h35.6c20.9,0,30.3,6.8,30.3,20.5    c0,8.5-4.1,13.7-13.9,16.3v0.4c7.4,1.5,11,4.7,13.2,14.7l1.1,4.6c0.4,1.8,1.6,2.6,2.6,2.6h1.7V160h-26.2l-2.4-19.4    c-0.7-5.8-2.8-7.9-8-7.9h-4.3v14.7h6.5V160h-36.2L481.1,147.4L481.1,147.4z M510.3,120.3h4.1c6.9,0,8.8-3.2,8.8-8.9s-2-9-8.8-9    h-4.1V120.3z"/>
		<path fill="#0C284C" d="M553.4,147.4h2.7c1.3-0.3,2.2-1.3,2.5-2.6V122c-0.3-1.3-1.2-2.2-2.5-2.6h-3V106h24.7c2,0,3.2,1.8,3.2,5.2    v33.7c0.3,1.3,1.3,2.3,2.6,2.6h2.7V160h-32.7v-12.6H553.4z M559.3,94.3c0-5.8,4.3-9.7,10.3-9.7s10.4,3.9,10.4,9.7    s-4.3,9.5-10.4,9.5S559.3,100.1,559.3,94.3"/>
		<path fill="#0C284C" d="M584.8,166.2c0-6.1,5.3-9.6,9.8-11.2c-2.9-1.4-4.7-4.4-4.7-7.7c0-4.8,2.8-8,6.7-10.3c-5.2-2.9-8-7.6-8-13.9    c0-11.4,9.2-18,24.9-18c3.3,0,6.6,0.3,9.8,1h19v13.4h-2c-0.8,0.1-1.6,0.7-2,1.4c0,0.7,0.1,1.4,0.1,2.2c0,11.4-9.1,17.5-24.9,17.5    c-3.3,0-6.5-0.3-9.7-0.9v0.7c0,2.2,0.5,3.5,3.3,3.5h18.6c11.8,0,16.9,4.3,16.9,14.2c0,12.3-8.9,20.6-30.9,20.6    C591.5,178.6,584.8,173.9,584.8,166.2 M603,159.9c-0.1,0.5-0.1,1-0.1,1.4c0,4.3,1.5,5.4,8.8,5.4c6,0,11.4-0.9,11.4-4.1    c0-1.9-1.1-2.8-4.4-2.8L603,159.9z M618.7,123.1c0-5.3-1.9-7.1-5-7.1s-5.1,1.7-5.1,7.1s2,7.3,5.1,7.3S618.7,128.4,618.7,123.1"/>
		<path fill="#0C284C" d="M681.9,126.5c0-4-1.8-4.8-6.5-4.8c-1.4,0-2.7,0.1-4.1,0.3v25.5h5.9V160h-33.3v-12.6h2.5    c1.2-0.3,2.2-1.3,2.5-2.6V104c-0.2-1.3-1.2-2.2-2.5-2.4h-2.9V88.4H668c2,0,3.3,1.7,3.3,4.5v20.3c5-5.3,11.9-8.2,19.1-8.2    c7.2,0,13.9,3,13.9,12.9v27c0.2,1.3,1.2,2.3,2.5,2.6h1.6V160h-26.5L681.9,126.5L681.9,126.5z"/>
		<path fill="#0C284C" d="M707.9,106h5.3V92h22.4v14h9v13.4h-9v22c0,4.6,1.5,6,6.4,6h2.8v12.2c-3.9,1-7.8,1.6-11.8,1.6    c-11.9,0-19.8-3.4-19.8-16v-25.8h-5.3L707.9,106z"/>
		<polygon fill="#0C284C" points="148.2,135.2 174.9,161.9 234.6,102.2 252,119.7 174.9,196.8 130.8,152.6   "/>
		<polygon fill="#2E8626" points="164.5,30 111.4,83.7 70.4,83.7 70.4,125.1 20,176 51.9,176 164.5,65.2 193.8,95.8 211.5,78.4   "/>
	</g>
</g>
</svg>