<svg xmlns="http://www.w3.org/2000/svg" width="109.69" height="79.871" viewBox="0 0 109.69 79.871">
  <g id="Icon_ionic-ios-mail-unread" data-name="Icon ionic-ios-mail-unread" transform="translate(-3.375 -7.313)" opacity="0.5">
    <path id="Path_41" data-name="Path 41" d="M51.315,20.032a12.72,12.72,0,1,1-12.72-12.72,12.72,12.72,0,0,1,12.72,12.72Z" transform="translate(61.75 0)" fill="#a4f2de"/>
    <g id="Group_1308" data-name="Group 1308" transform="translate(3.375 11.552)">
      <path id="Path_42" data-name="Path 42" d="M100.408,27.614a17.659,17.659,0,0,1-4.113-.5L83.8,39.784a.505.505,0,0,0,0,.734l19.855,21.035a3.391,3.391,0,0,1,0,4.826,3.451,3.451,0,0,1-4.852,0L79.024,45.423a.543.543,0,0,0-.765,0L73.434,50.3A21.286,21.286,0,0,1,58.3,56.648a21.712,21.712,0,0,1-15.452-6.531l-4.641-4.695a.543.543,0,0,0-.765,0L17.666,66.379a3.45,3.45,0,0,1-4.852,0,3.391,3.391,0,0,1,0-4.826L32.67,40.518a.556.556,0,0,0,0-.734L4.272,11.038a.52.52,0,0,0-.9.367V68.923a8.44,8.44,0,0,0,8.438,8.393h92.815a8.44,8.44,0,0,0,8.438-8.393V22.237A17.537,17.537,0,0,1,100.408,27.614Z" transform="translate(-3.375 -1.685)" fill="#a4f2de"/>
      <path id="Path_43" data-name="Path 43" d="M80.916,16.917a17.613,17.613,0,0,1,2.173-8.48H9.473a8.274,8.274,0,0,0-5.247,1.855L45.8,52.612a14.524,14.524,0,0,0,20.723,0l21.332-21.7A17.533,17.533,0,0,1,80.916,16.917Z" transform="translate(-1.019 -8.438)" fill="#a4f2de"/>
    </g>
  </g>
</svg>
