<svg width="332" height="255" viewBox="0 0 332 255" fill="none" xmlns="http://www.w3.org/2000/svg">
<g clip-path="url(#clip0_5_233)">
<path d="M166 255C237.103 255 294.743 251.633 294.743 247.48C294.743 243.327 237.103 239.96 166 239.96C94.8973 239.96 37.2571 243.327 37.2571 247.48C37.2571 251.633 94.8973 255 166 255Z" fill="#D5DCE3"/>
<path opacity="0.8" d="M222.327 13.7843L220.674 36.55C220.621 37.3406 220.275 38.0646 219.751 38.6027C219.147 39.2471 218.283 39.6523 217.354 39.6523H199.1C198.423 39.6523 197.819 39.4398 197.334 39.0677C196.584 38.5097 196.139 37.5863 196.212 36.55L197.865 13.7843C197.985 12.0704 199.472 10.682 201.185 10.682H219.439C221.152 10.682 222.447 12.0704 222.327 13.7843Z" fill="#D5DCE3"/>
<path d="M214.412 24.0943C214.18 27.4557 211.75 30.1727 208.994 30.1727C206.238 30.1727 204.187 27.4491 204.426 24.0943C204.658 20.7329 207.088 18.0159 209.844 18.0159C212.6 18.0159 214.651 20.7396 214.412 24.0943Z" fill="white"/>
<path d="M216.716 38.0912H200.01C198.954 38.0912 198.217 37.5863 198.191 36.8689C198.151 35.8392 203.569 31.3552 208.709 31.7405C208.728 31.7405 208.748 31.7405 208.762 31.7405C208.762 31.7405 208.801 31.7405 208.821 31.7405C211.969 31.7537 214.937 33.089 217.427 35.0553C219.904 37.015 217.56 38.0912 216.71 38.0912H216.716Z" fill="white"/>
<path d="M128.165 38.8286C124.613 38.8751 121.479 36.0119 121.187 32.4579C120.895 28.8972 123.544 25.9677 127.103 25.9212C130.655 25.8747 133.789 28.7378 134.082 32.2918C134.374 35.8459 131.724 38.7821 128.165 38.8286ZM127.382 29.349C125.715 29.3689 124.473 30.744 124.613 32.4114C124.752 34.0788 126.22 35.4207 127.88 35.4008C129.546 35.3809 130.788 34.0057 130.649 32.3383C130.509 30.6709 129.042 29.329 127.382 29.349Z" fill="#D5DCE3"/>
<path d="M128.484 28.8508L126.041 28.884L124.739 13.1267L127.189 13.1001L128.484 28.8508Z" fill="#D5DCE3"/>
<path d="M129.507 13.8043L124.912 13.864L124.713 11.4128L129.301 11.353L129.507 13.8043Z" fill="#D5DCE3"/>
<path d="M129.766 16.9531L125.45 17.0062L125.25 14.5549L129.566 14.5018L129.766 16.9531Z" fill="#D5DCE3"/>
<path d="M130.144 21.3906L126.373 21.4371L126.173 18.9925L129.938 18.946L130.144 21.3906Z" fill="#D5DCE3"/>
<g opacity="0.8">
<path d="M178.868 161.957L189.446 178.253L224.346 143.337C224.651 143.031 224.233 142.553 223.888 142.819L190.628 168.899L184.346 158.769L178.862 161.957H178.868Z" fill="#349A4E"/>
</g>
<path d="M275.766 130.589L281.051 55.3233C281.224 52.8388 279.345 50.8193 276.841 50.8259L145.549 50.9389C143.052 50.9389 140.887 52.9584 140.708 55.4429L135.423 130.709C135.25 133.193 137.129 135.213 139.633 135.206L270.925 135.093C273.422 135.093 275.587 133.074 275.766 130.589Z" fill="#263238"/>
<path d="M274.079 128.948L279.365 53.6825C279.537 51.198 277.658 49.1785 275.155 49.1851L143.862 49.2981C141.366 49.2981 139.201 51.3176 139.022 53.8021L133.736 129.068C133.564 131.552 135.443 133.572 137.946 133.565L269.239 133.452C271.735 133.452 273.9 131.433 274.079 128.948Z" fill="#407BFF"/>
<path opacity="0.6" d="M270.6 130.064C270.414 130.237 270.089 130.45 269.611 130.45L138.318 130.562C137.435 130.562 136.711 129.792 136.777 128.915L142.063 53.6493C142.096 53.1776 142.328 52.872 142.514 52.6927C142.7 52.52 143.026 52.3074 143.504 52.3074L274.796 52.1945C275.679 52.1945 276.397 52.9651 276.337 53.8419L271.051 129.108C271.018 129.579 270.786 129.885 270.6 130.064Z" fill="white"/>
<path d="M226.929 88.6847H180.84C180.017 88.6847 179.28 89.349 179.194 90.1661L178.49 96.9088C178.404 97.7259 179.001 98.3902 179.825 98.3902H225.913C226.736 98.3902 227.473 97.7259 227.559 96.9088L228.263 90.1661C228.35 89.349 227.752 88.6847 226.929 88.6847Z" fill="white"/>
<path d="M186.325 116.22H179.134C178.311 116.22 177.573 116.884 177.487 117.701L176.783 124.444C176.697 125.261 177.295 125.926 178.118 125.926H185.309C186.132 125.926 186.869 125.261 186.956 124.444L187.66 117.701C187.746 116.884 187.148 116.22 186.325 116.22Z" fill="white"/>
<path d="M198.742 116.22H191.551C190.727 116.22 189.99 116.884 189.904 117.701L189.2 124.444C189.114 125.261 189.711 125.926 190.535 125.926H197.726C198.549 125.926 199.286 125.261 199.373 124.444L200.076 117.701C200.163 116.884 199.565 116.22 198.742 116.22Z" fill="white"/>
<path d="M211.159 116.22H203.967C203.144 116.22 202.407 116.884 202.321 117.701L201.617 124.444C201.531 125.261 202.128 125.926 202.952 125.926H210.143C210.966 125.926 211.703 125.261 211.789 124.444L212.493 117.701C212.58 116.884 211.982 116.22 211.159 116.22Z" fill="white"/>
<path d="M223.575 116.22H216.384C215.561 116.22 214.824 116.884 214.738 117.701L214.034 124.444C213.947 125.261 214.545 125.926 215.368 125.926H222.559C223.383 125.926 224.12 125.261 224.206 124.444L224.91 117.701C224.996 116.884 224.399 116.22 223.575 116.22Z" fill="white"/>
<path d="M186.624 111.63H215.455C216.856 111.63 218.111 110.5 218.257 109.105L218.602 105.797C218.748 104.402 217.732 103.273 216.331 103.273H187.5C186.099 103.273 184.844 104.402 184.698 105.797L184.353 109.105C184.207 110.5 185.223 111.63 186.624 111.63Z" stroke="#407BFF" stroke-linecap="round" stroke-linejoin="round"/>
<path d="M228.589 74.6413H182.5C181.677 74.6413 180.94 75.3056 180.854 76.1227L180.15 82.8654C180.063 83.6825 180.661 84.3468 181.484 84.3468H227.573C228.396 84.3468 229.133 83.6825 229.219 82.8654L229.923 76.1227C230.01 75.3056 229.412 74.6413 228.589 74.6413Z" fill="white"/>
<path d="M186.445 93.5407C186.538 92.6306 185.88 91.8999 184.964 91.8999C184.048 91.8999 183.237 92.6373 183.145 93.5407C183.052 94.4508 183.709 95.1816 184.625 95.1816C185.542 95.1816 186.352 94.4442 186.445 93.5407Z" fill="#263238"/>
<path d="M191.517 93.5407C191.61 92.6306 190.953 91.8999 190.037 91.8999C189.12 91.8999 188.31 92.6373 188.217 93.5407C188.124 94.4508 188.782 95.1816 189.698 95.1816C190.614 95.1816 191.424 94.4442 191.517 93.5407Z" fill="#263238"/>
<path d="M196.584 93.5407C196.677 92.6306 196.019 91.8999 195.103 91.8999C194.187 91.8999 193.377 92.6373 193.284 93.5407C193.191 94.4508 193.848 95.1816 194.764 95.1816C195.681 95.1816 196.491 94.4442 196.584 93.5407Z" fill="#263238"/>
<path d="M201.65 93.5407C201.743 92.6306 201.086 91.8999 200.169 91.8999C199.253 91.8999 198.443 92.6373 198.35 93.5407C198.257 94.4508 198.914 95.1816 199.831 95.1816C200.747 95.1816 201.557 94.4442 201.65 93.5407Z" fill="#263238"/>
<path d="M206.823 93.5407C206.916 92.6306 206.258 91.8999 205.342 91.8999C204.426 91.8999 203.616 92.6373 203.523 93.5407C203.43 94.4508 204.087 95.1816 205.003 95.1816C205.92 95.1816 206.73 94.4442 206.823 93.5407Z" fill="#263238"/>
<path d="M188.104 79.4973C188.197 78.5872 187.54 77.8565 186.624 77.8565C185.707 77.8565 184.897 78.5939 184.804 79.4973C184.711 80.4074 185.369 81.1382 186.285 81.1382C187.201 81.1382 188.012 80.4008 188.104 79.4973Z" fill="#263238"/>
<path d="M193.177 79.4973C193.27 78.5872 192.613 77.8565 191.697 77.8565C190.78 77.8565 189.97 78.5939 189.877 79.4973C189.784 80.4074 190.442 81.1382 191.358 81.1382C192.274 81.1382 193.085 80.4008 193.177 79.4973Z" fill="#263238"/>
<path d="M198.244 79.4973C198.337 78.5872 197.679 77.8565 196.763 77.8565C195.847 77.8565 195.037 78.5939 194.944 79.4973C194.851 80.4074 195.508 81.1382 196.424 81.1382C197.341 81.1382 198.151 80.4008 198.244 79.4973Z" fill="#263238"/>
<path d="M203.31 79.4973C203.403 78.5872 202.746 77.8565 201.829 77.8565C200.913 77.8565 200.103 78.5939 200.01 79.4973C199.917 80.4074 200.575 81.1382 201.491 81.1382C202.407 81.1382 203.217 80.4008 203.31 79.4973Z" fill="#263238"/>
<path d="M208.383 79.4973C208.476 78.5872 207.819 77.8565 206.902 77.8565C205.986 77.8565 205.176 78.5939 205.083 79.4973C204.99 80.4074 205.647 81.1382 206.564 81.1382C207.48 81.1382 208.29 80.4008 208.383 79.4973Z" fill="#263238"/>
<path d="M213.449 79.4973C213.542 78.5872 212.885 77.8565 211.969 77.8565C211.052 77.8565 210.242 78.5939 210.149 79.4973C210.056 80.4074 210.714 81.1382 211.63 81.1382C212.546 81.1382 213.356 80.4008 213.449 79.4973Z" fill="#263238"/>
<path d="M209.147 59.7742L208.788 63.182C208.755 63.4876 208.483 63.7401 208.171 63.7401C207.859 63.7401 207.639 63.4943 207.673 63.182L208.031 59.7742C208.144 58.6714 207.341 57.7813 206.238 57.7813H205.017C203.914 57.7813 202.918 58.6781 202.806 59.7742L202.493 62.9363H201.378L201.69 59.7742C201.869 58.0603 203.416 56.6652 205.136 56.6652H206.358C208.078 56.6652 209.333 58.0603 209.147 59.7742Z" fill="#407BFF"/>
<path d="M209.167 63.0558L208.469 69.6922C208.423 70.1107 208.051 70.4495 207.626 70.4495H200.96C200.541 70.4495 200.236 70.1107 200.276 69.6922L200.973 63.0558C200.999 62.7835 201.172 62.5443 201.398 62.4115C201.524 62.3384 201.663 62.2985 201.816 62.2985H208.476C208.622 62.2985 208.748 62.3384 208.861 62.4048C209.067 62.5377 209.193 62.7768 209.16 63.0558H209.167Z" fill="#407BFF"/>
<path d="M261.158 48.7467L244.93 48.8397" stroke="#263238" stroke-linecap="round" stroke-linejoin="round"/>
<path d="M270.002 48.7002L264.265 48.7268" stroke="#263238" stroke-linecap="round" stroke-linejoin="round"/>
<g opacity="0.3">
<path d="M156.106 52.2875H174.685L155.801 130.556H140.848C140.848 130.556 140.821 130.556 140.808 130.556C138.955 130.549 137.654 128.776 138.085 126.975L156.106 52.2808V52.2875Z" fill="white"/>
<path d="M182.932 52.2875H190.814L171.929 130.562H164.048L182.932 52.2875Z" fill="white"/>
</g>
<path d="M57.5356 27.8543H61.3071C57.5157 27.8543 54.6539 30.93 54.9195 34.7232L62.9207 149.183C63.1863 152.976 66.4731 156.052 70.2712 156.052H66.4996C62.7082 156.052 59.4148 152.976 59.1491 149.183L51.1479 34.7232C50.8823 30.93 53.7442 27.8543 57.5356 27.8543Z" fill="#407BFF"/>
<path d="M57.5357 27.8543H61.3072C57.5158 27.8543 54.6539 30.93 54.9195 34.7232L62.9207 149.183C63.1863 152.976 66.4731 156.052 70.2712 156.052H66.4997C62.7082 156.052 58.8836 152.976 58.618 149.183L50.6168 34.7232C50.3512 30.93 53.7442 27.8543 57.5357 27.8543Z" fill="#263238"/>
<path d="M67.6218 156.058H113.77C117.561 156.058 120.423 152.983 120.158 149.19L112.156 34.7299C111.891 30.9367 108.604 27.861 104.806 27.861H58.6578C54.8664 27.861 52.0045 30.9367 52.2701 34.7299L60.2713 149.19C60.5369 152.983 63.8237 156.058 67.6218 156.058Z" fill="#407BFF"/>
<g opacity="0.6">
<path d="M104.686 30.0598C107.322 30.0598 109.613 32.2055 109.799 34.8428L117.8 149.303C117.887 150.531 117.495 151.674 116.698 152.531C115.901 153.381 114.792 153.853 113.571 153.853H67.4226C64.7865 153.853 62.4957 151.707 62.3098 149.07L54.3086 34.6103C54.2223 33.3813 54.6141 32.2387 55.4109 31.3818C56.2077 30.5315 57.3165 30.0598 58.5383 30.0598H104.686Z" fill="white"/>
</g>
<g opacity="0.3">
<path d="M91.6521 153.853H73.246L88.425 30.0598H103.239C104.587 30.0598 105.795 30.6245 106.652 31.5279L91.6521 153.846V153.853Z" fill="white"/>
<path d="M69.9458 153.853H65.8025L80.9815 30.0598H85.1249L69.9458 153.853Z" fill="white"/>
</g>
<path d="M68.5116 84.1475H101.937" stroke="white" stroke-linecap="round" stroke-linejoin="round"/>
<path d="M72.8209 89.0966H99.0024" stroke="white" stroke-linecap="round" stroke-linejoin="round"/>
<path d="M69.5076 61.3485L69.554 62.6639H68.6975L68.651 61.3419L67.1371 58.957H68.0468L69.0959 60.6045L70.0255 58.957H70.8688L69.5142 61.3485H69.5076Z" fill="#407BFF"/>
<path d="M70.8953 60.8038C70.8555 59.7011 71.6855 58.884 72.8541 58.884C74.0227 58.884 74.9059 59.6944 74.9457 60.8038C74.9855 61.9132 74.1489 62.7237 72.9869 62.7237C71.8249 62.7237 70.9351 61.9066 70.8953 60.8038ZM74.0759 60.8038C74.0493 60.0996 73.538 59.6147 72.874 59.6147C72.21 59.6147 71.7319 60.0996 71.7585 60.8038C71.7851 61.508 72.2963 61.9929 72.9603 61.9929C73.6243 61.9929 74.1024 61.508 74.0759 60.8038Z" fill="#407BFF"/>
<path d="M75.5699 61.0297L75.4968 58.9504H76.3534L76.4264 60.9964C76.453 61.7006 76.7651 61.9929 77.2896 61.9929C77.8142 61.9929 78.1063 61.7006 78.0798 60.9964L78.0068 58.9504H78.85L78.9231 61.0297C78.9629 62.1191 78.3587 62.7236 77.3095 62.7236C76.2604 62.7236 75.6097 62.1191 75.5699 61.0297Z" fill="#407BFF"/>
<path d="M82.19 62.6639L81.4397 61.6275H80.6495L80.6827 62.6639H79.8262L79.6934 58.957H81.2936C82.283 58.957 82.9204 59.4685 82.947 60.3056C82.9669 60.8636 82.7013 61.2688 82.2298 61.4747L83.0997 62.6639H82.1767H82.19ZM81.2803 59.6546H80.5831L80.6296 60.9499H81.3268C81.8514 60.9499 82.1037 60.7042 82.0904 60.3056C82.0771 59.9003 81.8049 59.6612 81.2803 59.6612V59.6546Z" fill="#407BFF"/>
<path d="M84.9257 60.8038C84.8859 59.6878 85.7159 58.884 86.8646 58.884C87.502 58.884 88.0465 59.1165 88.4117 59.5416L87.8805 60.0531C87.6215 59.7675 87.3028 59.6214 86.9376 59.6214C86.247 59.6214 85.769 60.1063 85.7955 60.8105C85.8221 61.508 86.3267 61.9996 87.0239 61.9996C87.3958 61.9996 87.7012 61.8534 87.9403 61.5611L88.5113 62.0726C88.1793 62.5044 87.6547 62.7369 87.004 62.7369C85.8553 62.7369 84.9722 61.9398 84.9323 60.8171L84.9257 60.8038Z" fill="#407BFF"/>
<path d="M88.7237 60.8038C88.6838 59.7011 89.5138 58.884 90.6825 58.884C91.8511 58.884 92.7342 59.6944 92.7741 60.8038C92.8139 61.9132 91.9773 62.7237 90.8153 62.7237C89.6533 62.7237 88.7635 61.9066 88.7237 60.8038ZM91.9042 60.8038C91.8777 60.0996 91.3664 59.6147 90.7024 59.6147C90.0384 59.6147 89.5603 60.0996 89.5869 60.8038C89.6134 61.508 90.1247 61.9929 90.7887 61.9929C91.4527 61.9929 91.9308 61.508 91.9042 60.8038Z" fill="#407BFF"/>
<path d="M93.3585 58.9504H95.0384C96.2469 58.9504 97.1034 59.6811 97.1433 60.8038C97.1831 61.9265 96.3797 62.6572 95.1645 62.6572H93.4846L93.3518 58.9504H93.3585ZM95.1048 61.953C95.8418 61.953 96.3066 61.5146 96.28 60.8038C96.2535 60.093 95.7555 59.6545 95.0251 59.6545H94.2416L94.3213 61.953H95.1048Z" fill="#407BFF"/>
<path d="M100.702 61.973L100.729 62.6639H97.8603L97.7275 58.957H100.523L100.55 59.6479H98.604L98.6306 60.4517H100.35L100.377 61.1227H98.6571L98.6837 61.9796H100.702V61.973Z" fill="#407BFF"/>
<path d="M75.9484 76.4485L75.975 77.9365H68.983L68.9631 76.7607L72.6682 73.1867C73.5713 72.3032 73.724 71.7518 73.7174 71.2204C73.7041 70.3502 73.0998 69.8519 71.9312 69.8519C71.0082 69.8519 70.2446 70.1642 69.7267 70.8417L68.4784 69.8918C69.1955 68.902 70.497 68.3174 72.0574 68.3174C74.1158 68.3174 75.4637 69.3603 75.4902 71.041C75.5035 71.9644 75.2645 72.8014 73.9697 74.037L71.4797 76.4485H75.9484Z" fill="#263238"/>
<path d="M83.6708 75.093C83.6973 76.694 82.5154 78.0757 79.9723 78.0757C78.631 78.0757 77.2831 77.6705 76.3933 76.9796L77.1304 75.6112C77.8143 76.1825 78.8501 76.5478 79.9258 76.5478C81.1874 76.5478 81.9178 75.9898 81.9045 75.1129C81.8912 74.256 81.2538 73.7046 79.8195 73.7046H78.9497L78.9298 72.5022L81.0347 69.938H76.7253L76.6987 68.4633H83.1595L83.1794 69.6391L80.9218 72.376C82.7146 72.6085 83.6375 73.6781 83.6641 75.0997L83.6708 75.093Z" fill="#263238"/>
<path d="M92.5219 75.2126C92.5551 76.973 91.0412 78.0691 88.684 78.0691C86.3268 78.0691 84.8062 76.973 84.773 75.2126C84.7531 74.1697 85.2843 73.3991 86.2471 72.9473C85.4835 72.5288 85.0519 71.8512 85.032 70.9544C85.0054 69.3269 86.4064 68.3105 88.5047 68.3105C90.6029 68.3105 92.0704 69.3269 92.1036 70.9544C92.1168 71.8512 91.6985 72.5288 90.9349 72.9473C91.9309 73.3924 92.502 74.1697 92.5152 75.2126H92.5219ZM90.749 75.1595C90.7291 74.2228 89.9124 73.6382 88.6109 73.6382C87.3095 73.6382 86.5326 74.2228 86.5525 75.1595C86.5724 76.1227 87.3626 76.6874 88.664 76.6874C89.9655 76.6874 90.7689 76.1161 90.749 75.1595ZM86.7783 71.0408C86.7916 71.8512 87.4755 72.3694 88.591 72.3694C89.7065 72.3694 90.3971 71.8512 90.3838 71.0408C90.3705 70.1838 89.6268 69.6989 88.5445 69.6989C87.4622 69.6989 86.765 70.1838 86.7783 71.0408Z" fill="#263238"/>
<path d="M101.353 75.2126C101.386 76.973 99.8723 78.0691 97.5151 78.0691C95.1579 78.0691 93.6374 76.973 93.6042 75.2126C93.5843 74.1697 94.1155 73.3991 95.0783 72.9473C94.3147 72.5288 93.8831 71.8512 93.8631 70.9544C93.8366 69.3269 95.2376 68.3105 97.3359 68.3105C99.4341 68.3105 100.902 69.3269 100.928 70.9544C100.941 71.8512 100.523 72.5288 99.7595 72.9473C100.755 73.3924 101.326 74.1697 101.34 75.2126H101.353ZM99.5802 75.1595C99.5603 74.2228 98.7435 73.6382 97.4421 73.6382C96.1407 73.6382 95.3638 74.2228 95.3837 75.1595C95.4036 76.1227 96.1938 76.6874 97.4952 76.6874C98.7967 76.6874 99.6001 76.1161 99.5802 75.1595ZM95.6095 71.0408C95.6227 71.8512 96.3067 72.3694 97.4222 72.3694C98.5377 72.3694 99.2283 71.8512 99.215 71.0408C99.2017 70.1838 98.458 69.6989 97.3757 69.6989C96.2934 69.6989 95.5962 70.1838 95.6095 71.0408Z" fill="#263238"/>
<path d="M50.9421 44.4486L52.1174 60.5049" stroke="#407BFF" stroke-linecap="round" stroke-linejoin="round"/>
<path d="M50.4043 37.128L50.7164 41.3663" stroke="#407BFF" stroke-linecap="round" stroke-linejoin="round"/>
<path d="M81.9177 21.1647V11.3928" stroke="#407BFF" stroke-linecap="round" stroke-linejoin="round"/>
<path d="M74.1822 23.2374L69.3018 14.7741" stroke="#407BFF" stroke-linecap="round" stroke-linejoin="round"/>
<path d="M94.5337 14.7741L89.6533 23.2374" stroke="#407BFF" stroke-linecap="round" stroke-linejoin="round"/>
<path d="M208.423 194.661C205.07 208.113 203.702 222.057 204.392 235.908" stroke="#407BFF" stroke-miterlimit="10"/>
<path d="M205.322 194.09C205.355 195.332 206.464 199.717 207.706 199.683C208.947 199.65 209.844 195.219 209.811 193.977C209.778 192.735 208.748 191.758 207.513 191.785C206.272 191.818 205.296 192.848 205.322 194.083V194.09Z" fill="#407BFF"/>
<path d="M210.149 208.034C210.116 206.791 209.007 202.407 207.766 202.44C206.524 202.473 205.627 206.904 205.654 208.147C205.681 209.389 206.716 210.365 207.951 210.339C209.193 210.306 210.169 209.276 210.143 208.04L210.149 208.034Z" fill="#407BFF"/>
<path d="M200.767 203.477C202.009 203.45 206.391 202.334 206.358 201.092C206.325 199.849 201.896 198.953 200.654 198.986C199.412 199.019 198.436 200.049 198.463 201.284C198.496 202.527 199.525 203.503 200.76 203.477H200.767Z" fill="#407BFF"/>
<path d="M214.704 198.647C213.463 198.68 209.08 199.79 209.113 201.032C209.147 202.274 213.576 203.171 214.817 203.144C216.059 203.118 217.035 202.081 217.008 200.846C216.982 199.604 215.946 198.627 214.711 198.654L214.704 198.647Z" fill="#407BFF"/>
<path d="M201.099 197.837C201.995 198.694 205.88 201.005 206.736 200.109C207.593 199.212 205.096 195.438 204.193 194.581C203.297 193.725 201.876 193.758 201.019 194.661C200.163 195.558 200.196 196.98 201.099 197.837Z" fill="#407BFF"/>
<path d="M214.372 204.28C213.476 203.423 209.592 201.112 208.735 202.008C207.878 202.905 210.375 206.678 211.278 207.535C212.175 208.392 213.596 208.359 214.452 207.456C215.309 206.559 215.275 205.137 214.372 204.28Z" fill="#407BFF"/>
<path d="M204.519 207.695C205.375 206.798 207.686 202.912 206.789 202.055C205.893 201.198 202.122 203.696 201.265 204.599C200.408 205.496 200.442 206.918 201.345 207.775C202.241 208.632 203.662 208.598 204.519 207.695Z" fill="#407BFF"/>
<path d="M210.959 194.422C210.103 195.319 207.792 199.205 208.689 200.062C209.585 200.919 213.356 198.421 214.213 197.518C215.07 196.621 215.036 195.199 214.133 194.342C213.237 193.485 211.816 193.519 210.959 194.422Z" fill="#407BFF"/>
<path d="M205.076 201.125C205.11 202.593 206.331 203.756 207.799 203.722C209.266 203.689 210.428 202.467 210.395 200.999C210.362 199.531 209.14 198.368 207.673 198.401C206.205 198.434 205.043 199.657 205.076 201.125Z" fill="white"/>
<path d="M204.698 220.895C204.698 220.895 205.156 214.112 208.881 213.036C212.606 211.96 213.967 210.512 213.967 210.512C213.967 210.512 213.589 221.027 204.698 220.895Z" fill="#407BFF"/>
<path opacity="0.5" d="M204.698 220.895C204.698 220.895 205.156 214.112 208.881 213.036C212.606 211.96 213.967 210.512 213.967 210.512C213.967 210.512 213.589 221.027 204.698 220.895Z" fill="white"/>
<path d="M204.207 226.089C204.207 226.089 203.748 219.307 200.023 218.231C196.298 217.155 194.937 215.7 194.937 215.7C194.937 215.7 195.316 226.216 204.207 226.083V226.089Z" fill="#407BFF"/>
<path opacity="0.5" d="M204.207 226.089C204.207 226.089 203.748 219.307 200.023 218.231C196.298 217.155 194.937 215.7 194.937 215.7C194.937 215.7 195.316 226.216 204.207 226.083V226.089Z" fill="white"/>
<path d="M218.257 240.219C218.257 245.514 211.955 249.799 204.187 249.799C196.418 249.799 190.116 245.514 190.116 240.219C190.116 237.542 191.73 235.117 194.339 233.384C195.847 232.374 197.686 231.597 199.731 231.138H208.642C210.747 231.616 212.633 232.42 214.16 233.47C216.696 235.204 218.257 237.582 218.257 240.219Z" fill="#407BFF"/>
<path opacity="0.8" d="M208.642 231.138C210.747 231.616 212.633 232.42 214.16 233.47C216.696 235.204 218.257 237.582 218.257 240.219C218.257 245.514 211.955 249.799 204.187 249.799C196.418 249.799 190.116 245.514 190.116 240.219C190.116 237.542 191.73 235.117 194.339 233.384C195.847 232.374 197.686 231.597 199.731 231.138H208.642Z" fill="white"/>
<path d="M204.226 232.002V236.738" stroke="#407BFF" stroke-miterlimit="10"/>
<path d="M214.777 230.992L214.034 233.317L214.02 233.344H194.346L194.306 233.217L193.596 230.992H214.777Z" fill="#407BFF"/>
<path d="M216.597 242.146C215.242 244.105 213.31 245.673 211.192 246.796C207.812 248.589 193.596 249.054 191.976 240.983C191.956 240.87 191.916 240.764 191.896 240.651C191.511 238.539 193.383 236.665 195.521 236.878C196.849 237.011 198.23 236.851 199.552 236.652C204.638 235.875 209.884 236.16 214.857 237.476C216.889 238.014 217.799 240.425 216.603 242.152L216.597 242.146Z" fill="#263238"/>
<path d="M114.547 239.462C114.792 239.376 114.958 239.176 115.038 238.877C115.098 238.652 115.011 238.505 114.932 238.419C114.42 237.888 112.342 238.266 112.11 238.306C112.057 238.319 112.01 238.359 112.003 238.412C111.99 238.466 112.01 238.519 112.057 238.552C112.402 238.798 112.906 239.117 113.404 239.322C113.823 239.489 114.234 239.575 114.553 239.462H114.547ZM114.732 238.605C114.766 238.638 114.799 238.698 114.772 238.811C114.719 239.017 114.613 239.15 114.454 239.203C114.075 239.336 113.358 239.083 112.495 238.519C113.331 238.392 114.467 238.319 114.732 238.605Z" fill="#407BFF"/>
<path d="M112.15 238.578C112.787 238.499 114.248 237.748 114.374 237.097C114.401 236.971 114.394 236.738 114.088 236.572C113.896 236.466 113.69 236.446 113.478 236.519C112.674 236.791 112.03 238.319 112.004 238.386C111.984 238.432 111.99 238.479 112.023 238.519C112.037 238.539 112.057 238.552 112.083 238.558C112.103 238.565 112.13 238.572 112.156 238.565L112.15 238.578ZM113.956 236.811C114.108 236.898 114.115 236.984 114.102 237.05C114.022 237.449 113.053 238.06 112.369 238.26C112.608 237.761 113.092 236.951 113.571 236.785C113.683 236.745 113.796 236.745 113.903 236.785C113.922 236.791 113.942 236.805 113.962 236.811H113.956Z" fill="#407BFF"/>
<path d="M105.848 235.901L111.253 238.087L115.974 225.591L110.563 223.406L105.848 235.901Z" fill="#FFB573"/>
<path d="M111.937 237.642L105.861 235.184C105.642 235.097 105.397 235.171 105.277 235.37L102.615 239.821C102.336 240.279 102.575 240.917 103.086 241.116C105.217 241.933 106.286 242.225 108.962 243.308C110.602 243.973 112.933 245.109 115.204 246.032C117.422 246.929 118.517 244.79 117.654 244.205C113.79 241.594 113.637 240.086 112.707 238.333C112.541 238.014 112.262 237.768 111.937 237.642Z" fill="#263238"/>
<path d="M115.901 231.723L106.512 227.923L107.375 224.482L117.448 228.169L115.901 231.723Z" fill="#407BFF"/>
<path d="M125.304 87.0903C123.398 92.6041 117.76 105.598 113.418 100.19C112.641 99.2272 111.984 98.1776 111.519 97.0283C109.673 92.4779 109.221 85.1041 108.989 83.4898L107.508 78.4345C107.482 78.3481 107.468 78.2551 107.468 78.1687L107.442 75.2856C107.442 74.1165 108.385 73.419 109.66 73.5252C109.66 73.5252 111.718 73.2861 111.718 74.5151L112.116 78.8463H112.103C112.309 80.3543 111.711 82.4535 112.063 83.8419C113.385 89.0434 115.217 89.2759 116.366 94.6435C117.966 90.7706 120.828 84.0678 120.828 84.0678C122.76 84.3069 125.928 85.2768 125.297 87.097L125.304 87.0903Z" fill="#FFB573"/>
<path d="M118.491 102.17C117.196 104.17 114.274 104.289 112.867 102.363C112.004 101.187 111.326 99.8915 111.027 98.9084C109.301 93.2485 108.232 89.7343 108.086 83.822C109.288 82.5731 111.247 82.1015 112.887 82.686L115.715 92.272C115.715 92.272 121.472 77.9562 123.803 77.4447C126.552 76.8402 127.694 79.2914 128.849 82.3074C129.679 84.4797 122.249 96.384 118.497 102.177L118.491 102.17Z" fill="#407BFF"/>
<path d="M141.751 63.1156C141.1 66.4371 139.639 73.6847 141.963 75.9035C141.963 75.9035 141.054 79.2715 134.885 79.2715C128.099 79.2715 131.645 75.9035 131.645 75.9035C135.35 75.0199 135.25 72.2697 134.606 69.6856L141.757 63.1089L141.751 63.1156Z" fill="#FFB573"/>
<path d="M131.372 55.2835C131.412 55.2835 131.452 55.2768 131.492 55.2569C131.625 55.1905 131.678 55.0311 131.611 54.8982C130.954 53.5895 129.739 53.4367 129.686 53.4301C129.54 53.4101 129.407 53.5164 129.394 53.6626C129.38 53.8087 129.48 53.9416 129.626 53.9549C129.666 53.9549 130.609 54.0877 131.133 55.1373C131.18 55.2303 131.273 55.2835 131.372 55.2835Z" fill="#263238"/>
<path d="M129.347 58.1865C129.347 58.1865 128.351 60.0199 127.395 60.8503C127.92 61.4748 128.955 61.3486 128.955 61.3486L129.347 58.1865Z" fill="#ED893E"/>
<path d="M129.878 57.2166C129.971 57.655 129.819 58.0669 129.526 58.1267C129.241 58.1865 128.929 57.8809 128.829 57.4425C128.73 57.004 128.889 56.5922 129.181 56.5324C129.467 56.4726 129.779 56.7782 129.878 57.2166Z" fill="#263238"/>
<path d="M129.321 56.5257L128.192 56.4526C128.192 56.4526 128.916 57.1634 129.321 56.5257Z" fill="#263238"/>
<path d="M106.227 73.2861V73.2996C106.227 73.2996 106.22 73.2928 106.22 73.2861H106.227Z" fill="#FFB573"/>
<path opacity="0.2" d="M125.064 84.2604C126.24 83.1843 127.036 83.5031 127.574 84.3601C128.112 86.8446 124.938 92.0527 123.663 94.0257L125.058 84.2604H125.064Z" fill="black"/>
<path d="M152.255 87.5355C152.103 90.2724 151.844 93.7202 151.425 98.0581C150.987 102.635 150.363 108.195 149.506 114.951C140.483 114.951 131.034 114.812 126.645 114.812C127.01 105.837 127.149 96.7494 123.126 78.8862C122.913 77.9496 123.531 77.0195 124.473 76.8535C126.293 76.528 129.314 76.0629 132.388 75.9168C136.213 75.7308 139.347 75.6112 142.714 75.9168C147.142 76.322 152.176 77.3517 152.176 77.3517C152.176 77.3517 152.733 78.9992 152.255 87.5421V87.5355Z" fill="#407BFF"/>
<path opacity="0.2" d="M152.255 87.5355C152.102 90.2724 151.843 93.7201 151.425 98.058C148.995 95.2414 146.697 85.5425 147.428 82.2277C149.221 83.45 150.881 85.33 152.149 87.0107C152.189 87.1701 152.229 87.3428 152.255 87.5355Z" fill="black"/>
<path d="M175.688 99.6922L180.309 97.0881L181.172 101.825C181.172 101.825 177.255 103.326 175.177 102.276L175.681 99.6922H175.688Z" fill="#FFB573"/>
<path d="M183.41 97.6262L183.729 99.1741C183.828 99.659 183.629 100.157 183.218 100.436L181.172 101.825L180.309 97.0881L181.909 96.6896C182.587 96.5168 183.264 96.9486 183.41 97.6262Z" fill="#FFB573"/>
<path d="M147.806 82.8322C149.287 85.8481 154.725 97.241 157.116 99.8716L157.58 100.363L157.813 100.609C157.893 100.689 157.959 100.762 158.085 100.875C158.537 101.3 159.008 101.652 159.493 101.938C160.462 102.522 161.445 102.861 162.388 103.107C164.28 103.578 166.073 103.658 167.819 103.625C171.312 103.485 174.579 102.901 177.846 101.924L177.255 99.1542C175.728 99.287 174.114 99.38 172.56 99.4066C171 99.4465 169.446 99.4066 167.946 99.2604C166.452 99.1342 164.997 98.8685 163.762 98.4434C163.151 98.2241 162.62 97.9518 162.222 97.6661C162.023 97.52 161.857 97.3738 161.73 97.2277C161.704 97.2077 161.638 97.1214 161.578 97.055L161.405 96.849L161.06 96.4371C159.227 94.1387 154.387 83.0581 152.932 80.2879L147.806 82.8388V82.8322Z" fill="#FFB573"/>
<path d="M175.615 104.402C171.843 106.435 167.255 106.88 163.165 105.611C159.274 104.402 155.814 101.579 153.809 98.0315C151.412 94.504 145.031 84.5261 145.828 81.942C146.777 78.8596 148.796 76.9464 152.169 77.7768C154.539 78.3547 159.068 89.8671 161.252 94.4708C162.116 95.7529 163.756 97.7857 165.595 98.4167C168.842 99.5394 171.232 99.0545 174.639 98.5695C175.263 98.9415 175.216 99.5195 175.528 100.171C176.172 101.479 176.279 103.107 175.615 104.402Z" fill="#407BFF"/>
<path d="M145.097 57.7879C144.081 63.2485 143.763 65.5868 140.635 68.0647C135.927 71.7981 129.447 69.3534 128.809 63.6936C128.238 58.5984 129.998 50.5204 135.655 48.9992C141.226 47.4978 146.113 52.3207 145.091 57.7879H145.097Z" fill="#FFB573"/>
<path d="M164.473 88.027C163.43 89.2161 163.098 89.907 161.651 90.5514C160.203 91.1958 157.043 90.6378 156.04 89.4088C156.365 90.3654 158.264 92.0859 159.26 92.2188C157.056 93.5076 153.955 92.9628 152.315 90.9965C152.474 92.159 153.57 93.202 154.679 93.5939C141.957 93.9261 147.315 87.934 139.347 79.411C130.522 69.9712 132.441 62.1789 132.441 62.1789C132.435 60.8304 132.136 58.5917 130.708 56.7715C129.433 55.1373 129.805 52.9318 130.21 51.6962C130.801 49.8827 132.601 49.2449 134.327 49.1386C134.633 47.3517 138.285 47.6772 138.756 47.9761C139.154 48.2352 139.261 48.2086 139.659 47.9562C140.555 47.3782 142.813 46.7804 145.23 48.7334C146.704 49.9292 148.284 52.0682 148.338 56.6254C148.391 61.3619 146.133 66.9885 153.962 74.1829C158.576 78.4278 156.372 87.5355 164.466 88.0337L164.473 88.027Z" fill="#263238"/>
<path d="M131.399 58.2064C130.728 59.1364 130.536 60.2923 130.682 61.2224C130.908 62.624 132.269 62.717 133.258 61.8202C134.148 61.0098 135.104 59.3092 134.374 58.1466C133.657 57.004 132.163 57.1435 131.392 58.2064H131.399Z" fill="#FFB573"/>
<path d="M143.723 114.945C143.723 114.945 141.014 153.082 137.953 178.233C137.036 185.773 134.739 193.074 131.173 199.803L116.173 228.076L108.498 225.053C108.498 225.053 113.783 198.182 124.155 183.527C124.155 183.527 116.412 139.73 126.545 114.805L143.723 114.938V114.945Z" fill="#263238"/>
<path opacity="0.2" d="M133.285 124.178C133.285 124.178 135.569 141.477 136.824 151.727C132.116 145.549 128.511 136.926 133.285 124.178Z" fill="black"/>
<path d="M163.105 243.043C163.284 242.85 163.337 242.598 163.264 242.299C163.211 242.073 163.065 241.98 162.952 241.946C162.248 241.707 160.588 243.003 160.403 243.149C160.363 243.182 160.343 243.242 160.356 243.288C160.369 243.342 160.416 243.381 160.469 243.388C160.887 243.441 161.485 243.494 162.023 243.448C162.468 243.408 162.873 243.288 163.098 243.043H163.105ZM162.859 242.206C162.906 242.219 162.966 242.252 162.992 242.365C163.045 242.571 163.012 242.737 162.899 242.863C162.634 243.156 161.87 243.262 160.841 243.162C161.518 242.664 162.487 242.079 162.859 242.206Z" fill="#407BFF"/>
<path d="M160.568 243.368C161.093 243.003 162.029 241.667 161.83 241.036C161.79 240.917 161.677 240.711 161.332 240.704C161.113 240.704 160.92 240.777 160.768 240.943C160.19 241.555 160.349 243.202 160.356 243.275C160.356 243.322 160.389 243.368 160.436 243.388C160.456 243.401 160.482 243.401 160.509 243.401C160.535 243.401 160.555 243.388 160.575 243.375L160.568 243.368ZM161.325 240.977C161.505 240.977 161.551 241.056 161.571 241.116C161.691 241.501 161.12 242.491 160.615 242.983C160.595 242.431 160.628 241.495 160.973 241.129C161.06 241.043 161.153 240.99 161.266 240.983C161.286 240.983 161.306 240.983 161.325 240.983V240.977Z" fill="#407BFF"/>
<path d="M153.729 243.906L159.539 243.348L157.766 230.128L151.95 230.693L153.729 243.906Z" fill="#FFB573"/>
<path d="M159.938 242.637L153.404 243.268C153.165 243.288 152.992 243.474 152.979 243.707L152.74 248.869C152.713 249.407 153.225 249.858 153.776 249.799C156.047 249.539 157.136 249.3 160.011 249.028C161.777 248.855 164.38 248.789 166.823 248.556C169.214 248.324 169.161 245.932 168.118 245.813C163.463 245.288 162.614 244.026 160.954 242.903C160.655 242.704 160.296 242.611 159.944 242.644L159.938 242.637Z" fill="#263238"/>
<path d="M149.473 114.938C149.473 114.938 156.91 160.45 158.344 187.407L158.61 235.695L152.587 236.871C152.587 236.871 143.862 206.061 142.86 188.257C140.197 141.005 124.812 140.926 134.068 114.852L149.466 114.938H149.473Z" fill="#263238"/>
<path d="M160.615 235.901L150.648 237.263L149.632 233.437L160.29 232.048L160.615 235.901Z" fill="#407BFF"/>
<path d="M106.24 73.3326H106.22V73.2994C106.22 73.2994 106.233 73.3193 106.24 73.3326Z" fill="#FFB573"/>
<path d="M106.877 66.1116H107.256C106.871 66.1116 106.579 66.4239 106.599 66.8092L107.203 78.3747C107.223 78.76 107.548 79.0722 107.933 79.0722H107.555C107.17 79.0722 106.844 78.76 106.824 78.3747L106.22 66.8092C106.2 66.4239 106.492 66.1116 106.877 66.1116Z" fill="#407BFF"/>
<path opacity="0.1" d="M106.877 66.1116H107.256C106.871 66.1116 106.579 66.4239 106.599 66.8092L107.203 78.3747C107.223 78.76 107.548 79.0722 107.933 79.0722H107.555C107.17 79.0722 106.844 78.76 106.824 78.3747L106.22 66.8092C106.2 66.4239 106.492 66.1116 106.877 66.1116Z" fill="white"/>
<path d="M107.668 79.0722H112.329C112.714 79.0722 113.006 78.76 112.986 78.3747L112.382 66.8092C112.362 66.4239 112.037 66.1116 111.652 66.1116H106.99C106.605 66.1116 106.313 66.4239 106.333 66.8092L106.937 78.3747C106.957 78.76 107.283 79.0722 107.668 79.0722Z" fill="#407BFF"/>
<path opacity="0.4" d="M107.668 79.0722H112.329C112.714 79.0722 113.006 78.76 112.986 78.3747L112.382 66.8092C112.362 66.4239 112.037 66.1116 111.652 66.1116H106.99C106.605 66.1116 106.313 66.4239 106.333 66.8092L106.937 78.3747C106.957 78.76 107.283 79.0722 107.668 79.0722Z" fill="white"/>
<path d="M112.701 78.1356C112.707 78.2551 112.668 78.3681 112.588 78.4544C112.508 78.5341 112.395 78.5806 112.276 78.5806H107.754C107.495 78.5806 107.276 78.3681 107.263 78.109L106.672 66.8889C106.665 66.7693 106.705 66.6564 106.785 66.5767C106.864 66.4903 106.977 66.4438 107.097 66.4438H111.618C111.877 66.4438 112.096 66.6564 112.11 66.9154L112.15 67.7193L112.701 78.1356Z" fill="#263238"/>
<g opacity="0.1">
<path d="M112.15 67.7193L110.649 78.5806H108.849L110.549 66.4438H111.618C111.877 66.4438 112.096 66.6564 112.11 66.9154L112.15 67.7193Z" fill="white"/>
<path d="M108.199 78.5806H107.794L109.494 66.4438H109.899L108.199 78.5806Z" fill="white"/>
</g>
<path d="M125.177 116.233C121.797 122.863 119.958 130.277 119.845 137.724C131.147 146.486 141.644 136.222 154.566 137.956C154.114 132.117 152.136 121.315 149.778 115.954C141.239 116.313 133.245 115.463 125.177 116.233Z" fill="#407BFF"/>
<path d="M126.353 113.862C126.353 113.862 125.443 116.2 125.702 116.2H149.393C149.599 116.2 149.765 116.101 149.778 115.974L149.984 113.948C149.998 113.809 149.825 113.689 149.599 113.689H126.724C126.558 113.689 126.406 113.756 126.359 113.862H126.353Z" fill="white"/>
<path d="M129.692 116.4H129.082C128.962 116.4 128.869 116.34 128.876 116.26L129.161 113.629C129.168 113.55 129.274 113.49 129.4 113.49H130.011C130.131 113.49 130.224 113.55 130.217 113.629L129.931 116.26C129.925 116.34 129.819 116.4 129.692 116.4Z" fill="#407BFF"/>
<path d="M144.539 116.4H143.929C143.809 116.4 143.716 116.34 143.723 116.26L144.008 113.629C144.015 113.55 144.121 113.49 144.247 113.49H144.858C144.978 113.49 145.071 113.55 145.064 113.629L144.779 116.26C144.772 116.34 144.666 116.4 144.539 116.4Z" fill="#407BFF"/>
</g>
<defs>
<clipPath id="clip0_5_233">
<rect width="332" height="255" fill="white"/>
</clipPath>
</defs>
</svg>
