<svg width="314" height="241" viewBox="-29 0 314 241" fill="none" xmlns="http://www.w3.org/2000/svg">
<path d="M 128 240 C 214.709 240 285 235.7467 285 230.5 C 285 225.2533 214.709 221 128 221 C 41.2913 221 -29 225.2533 -29 230.5 C -29 235.7467 41.2913 240 128 240 Z" fill="#D5DCE3"/>
<path d="M164.526 71.3772V61.9131C164.526 57.615 168.019 54.1312 172.33 54.1312H255.422C259.734 54.1312 263.229 57.615 263.229 61.9131V229.199H48.293V71.3772H164.526Z" fill="white"/>
<path d="M163.836 71.3772V61.9131C163.836 57.615 167.329 54.1312 171.639 54.1312H254.732C259.044 54.1312 262.538 57.615 262.538 61.9131V229.199H47.6025V71.3772H163.836Z" fill="#0F4599"/>
<path d="M255.338 77.9169V229.2H56.2312V77.1737L255.338 77.9169Z" fill="#BAE2FF"/>
<path d="M244.406 77.9169V229.2H45.3V77.1737L244.406 77.9169Z" fill="#1480CC"/>
<path d="M37.273 71.3785H233.976C238.013 71.3785 240.987 74.1017 241.567 77.8686V229.2H26.8856V81.7079C26.8372 76.2722 31.7584 71.3785 37.2744 71.3785H37.273Z" fill="white"/>
<path d="M109.426 127.559L224.391 127.879L224.635 40.7825L109.67 40.4625L109.426 127.559Z" fill="#EBF3FF"/>
<path d="M112.437 123.381L221.522 123.685L221.746 43.6154L112.662 43.3117L112.437 123.381Z" fill="#3397FF"/>
<path d="M212.326 117.231L142.225 117.036L180.555 80.3798L212.326 117.231Z" fill="#E3EEFF"/>
<path d="M180.451 117.142L121.55 116.978L153.511 86.6821L180.451 117.142Z" fill="#E3EEFF"/>
<path d="M164.4 77.9477C167.57 74.7872 167.57 69.6629 164.4 66.5023C161.229 63.3418 156.089 63.3418 152.918 66.5023C149.748 69.6629 149.748 74.7872 152.918 77.9477C156.089 81.1083 161.229 81.1083 164.4 77.9477Z" fill="#E3EEFF"/>
<path d="M94.1102 117.14L200.693 117.474L200.984 25.0762L94.4013 24.7424L94.1102 117.14Z" fill="#EBF3FF"/>
<path d="M97.2094 112.714L197.739 113.029L198.007 28.0875L97.4771 27.7726L97.2094 112.714Z" fill="#3397FF"/>
<path d="M188.142 39.7989H148.105V43.3055H188.142V39.7989Z" fill="#CCE5FF"/>
<path d="M106.684 52.775L188.142 52.775V49.2683L106.684 49.2683V52.775Z" fill="#CCE5FF"/>
<path d="M106.684 62.4148L188.142 62.4148V58.9082L106.684 58.9082V62.4148Z" fill="#CCE5FF"/>
<path d="M36.3256 71.3785H233.029C237.066 71.3785 240.04 74.1017 240.62 77.8686V229.744H25.9382V81.7079C25.8898 76.2722 30.811 71.3785 36.327 71.3785H36.3256Z" fill="#66B8FF"/>
<path d="M241.566 229.199H263.227V228.328H241.566V229.199Z" fill="white"/>
<g style="mix-blend-mode:darken" opacity="0.5">
<path d="M263.229 135.387L255.338 140.52H244.912L241.567 143.084V140.647H26.8856V135.387H263.229Z" fill="black"/>
</g>
<path d="M22.5107 137.735L266.277 137.735V110.279L22.5107 110.279V137.735Z" fill="#61B3F2"/>
<path d="M22.5108 137.735L244.333 137.735V110.279L22.5108 110.279V137.735Z" fill="#2E97E6"/>
<path d="M183.01 110.279V137.725H163.736L177.25 110.279H183.01Z" fill="#0E0E0E"/>
<path d="M176.348 123.976C176.348 127.774 177.014 131.212 178.132 133.686C179.224 136.219 180.743 137.725 182.42 137.725H187.537V110.288H182.42C179.064 110.288 176.347 116.439 176.347 123.976H176.348ZM181.195 128.499C180.237 128.197 179.492 126.328 179.492 123.976C179.492 121.625 180.237 119.817 181.195 119.515C182.155 119.817 182.9 121.687 182.9 123.976C182.9 126.266 182.155 128.197 181.195 128.499Z" fill="#2475B3"/>
<path d="M178.956 123.976C178.956 127.774 179.653 131.212 180.822 133.686C181.965 136.219 183.553 137.725 185.309 137.725H187.539V110.288H185.309C181.798 110.288 178.955 116.439 178.955 123.976H178.956ZM181.409 123.976C181.409 121.685 182.858 119.817 183.861 119.515C184.865 119.817 185.645 121.687 185.645 123.976C185.645 126.266 184.865 128.197 183.861 128.499C182.858 128.197 181.409 126.328 181.409 123.976Z" fill="#3F9EE6"/>
<path d="M178.801 123.976C178.801 127.774 179.467 131.212 180.586 133.686C181.677 136.219 183.196 137.725 184.873 137.725H189.991V110.288H184.873C181.517 110.288 178.8 116.439 178.8 123.976H178.801ZM183.648 128.499C182.69 128.197 181.945 126.328 181.945 123.976C181.945 121.625 182.69 119.817 183.648 119.515C184.608 119.817 185.353 121.687 185.353 123.976C185.353 126.266 184.608 128.197 183.648 128.499Z" fill="#2475B3"/>
<path d="M181.408 123.976C181.408 127.774 182.105 131.212 183.274 133.686C184.417 136.219 186.005 137.725 187.761 137.725H189.991V110.288H187.761C184.25 110.288 181.406 116.439 181.406 123.976H181.408ZM183.861 123.976C183.861 121.685 184.642 119.817 185.644 119.515C186.648 119.817 187.428 121.687 187.428 123.976C187.428 126.266 186.648 128.197 185.644 128.499C184.642 128.197 183.861 126.328 183.861 123.976Z" fill="#61B3F2"/>
<path d="M184.849 137.904C184.631 137.904 183.383 137.846 182.064 136.584C180.568 135.151 178.784 131.915 178.784 124.634C178.784 117.352 180.411 114.127 181.775 112.353C183.278 110.399 184.779 110.122 184.842 110.111C184.94 110.095 185.032 110.159 185.049 110.257C185.065 110.354 185.001 110.446 184.904 110.464C184.889 110.466 183.455 110.74 182.036 112.602C180.716 114.335 179.142 117.828 179.142 124.634C179.142 131.772 180.859 134.926 182.299 136.313C183.608 137.574 184.855 137.548 184.865 137.545C184.966 137.541 185.047 137.619 185.051 137.717C185.055 137.815 184.978 137.898 184.88 137.902C184.876 137.902 184.865 137.902 184.849 137.902V137.904Z" fill="#1A5380"/>
<path d="M185.643 128.131C185.885 128.191 186.065 128.252 186.308 128.312C186.267 128.352 186.267 128.372 186.308 128.372C196.048 131.267 203.246 140.191 203.246 150.865V173.785H210.989V150.865C210.989 136.031 200.523 123.609 186.55 120.473C186.247 120.352 185.944 120.291 185.643 120.232C183.404 119.749 183.222 127.77 185.643 128.131Z" fill="#E6E6E6"/>
<path d="M176.477 119.822V127.498C166.496 128.779 158.438 136.16 156.294 145.806C156.233 146.046 156.173 146.227 156.173 146.409C156.052 146.952 155.992 147.433 155.931 147.977C155.81 148.941 155.749 149.907 155.749 150.872V173.792H148.067V150.872C148.067 134.661 160.564 121.379 176.477 119.823V119.822Z" fill="#E6E6E6"/>
<path d="M185.464 125.867C203.62 129.041 205.957 148.745 205.957 148.745V173.791H203.234V150.87C203.234 139.972 195.737 130.862 185.648 128.147C184.877 127.898 184.397 125.647 184.397 125.647C184.397 125.647 184.874 125.754 185.464 125.867Z" fill="#999999"/>
<path d="M176.477 125.867V127.498C166.496 128.779 158.438 136.16 156.294 145.806C156.728 140.176 161.412 127.872 176.477 125.867Z" fill="#808080"/>
<path d="M185.643 128.131C185.885 128.191 186.065 128.252 186.308 128.312C186.126 127.829 185.142 126.733 185.021 124.443C184.9 122.09 185.701 120.501 186.55 120.473C186.247 120.352 185.944 120.291 185.643 120.232C183.404 119.749 183.222 127.77 185.643 128.131Z" fill="#666666"/>
<path d="M217.631 167.537H141.352V229.695H217.631V167.537Z" fill="#F7AF0C"/>
<path d="M180.639 182.891C180.397 182.831 180.155 182.831 179.913 182.831C174.712 182.831 170.475 187.031 170.475 192.267C170.475 196.101 172.775 199.389 176.041 200.91V216.919C176.041 219.051 177.795 220.816 179.911 220.816C180.093 220.816 180.335 220.816 180.517 220.756H180.697C182.452 220.39 183.784 218.808 183.784 216.92V200.911C187.049 199.45 189.349 196.102 189.349 192.268C189.349 187.277 185.536 183.259 180.638 182.894L180.639 182.891Z" fill="#CC840A"/>
<path d="M180.639 182.891C175.74 183.194 171.867 187.274 171.867 192.266C171.867 196.099 174.167 199.387 177.433 200.909V216.918C177.433 218.805 178.764 220.388 180.518 220.753H180.699C182.453 220.387 183.786 218.805 183.786 216.918V200.909C187.05 199.448 189.35 196.099 189.35 192.266C189.35 187.274 185.538 183.256 180.639 182.891Z" fill="#803D00"/>
<path d="M165.557 229.695H141.352V167.537H148.067C148.067 167.537 146.284 213.4 165.557 229.695Z" fill="#E6950B"/>
<path d="M201.254 229.695C207.035 217.365 205.957 184.213 205.957 167.537H213.64V229.695H201.254Z" fill="#F7E4AD"/>
<path d="M122.578 172.062C122.578 172.062 114.751 171.809 107.039 172.177C99.0284 172.567 91.1332 173.622 92.2609 176.377C92.5139 176.997 92.5596 177.592 92.4224 178.189C90.8116 185.555 61.5992 191.062 55.1533 186.541C50.3425 183.168 37.0833 187.505 31.6508 189.845C21.3051 120.809 21.0157 50.2342 30.1772 45.3244C39.3387 40.4361 64.7293 46.6323 64.7293 46.6323C64.7293 46.6323 77.5968 50.029 82.8451 85.1152C88.1161 120.179 122.577 172.062 122.577 172.062H122.578Z" fill="#4582E6"/>
<path d="M92.2622 176.376C92.5152 176.995 92.561 177.591 92.4237 178.188C84.5056 154.115 65.8597 85.3433 72.6272 104.092C79.1188 122.173 99.4913 158.797 107.041 172.176C99.0297 172.566 91.1345 173.62 92.2622 176.376Z" fill="#3D73CC"/>
<path d="M29.2218 63.5778C21.6939 72.7562 20.3133 74.983 13.2699 75.4646C15.641 76.9564 17.0446 78.9753 18.0121 81.1552H18.035C20.1074 85.6759 20.4061 90.9533 24.0207 93.9139L19.6929 98.1597L18.5881 99.2611C18.5881 99.2611 18.4266 99.1229 18.1507 98.8707C16.2627 97.1268 8.75912 90.0813 4.29275 83.6101C1.66865 79.8472 0.0807282 76.2896 1.18554 74.0641C2.9807 67.5929 7.58568 54.3069 19.3013 50.3361C26.9893 42.0069 34.5171 46.4807 37.1869 49.9458C40.7544 54.5806 37.1641 64.4941 29.2218 63.5765V63.5778Z" fill="#002E73"/>
<path d="M24.0193 93.9139L19.6915 98.1597L18.1494 98.8707C16.3771 97.218 9.60956 90.8849 5.09745 84.7342C4.82158 84.3666 4.54437 83.9776 4.29138 83.6101C6.52389 83.5873 13.7059 83.4035 18.0107 81.1552H18.0336C18.218 81.5455 18.3795 81.9346 18.5167 82.3249C20.1746 86.5479 20.7035 91.2055 24.0179 93.9139H24.0193Z" fill="#231F20"/>
<path d="M18.5181 82.3249C13.753 85.2171 8.29751 85.1246 5.09745 84.7342C4.82158 84.3666 4.54437 83.9776 4.29138 83.6101C6.52389 83.5873 13.7059 83.4035 18.0107 81.1552H18.0336C18.218 81.5455 18.3795 81.9346 18.5167 82.3249H18.5181Z" fill="#66B8FF"/>
<path d="M20.7762 89.9968C20.7762 89.9968 25.7069 90.4529 27.1992 91.7474C28.4467 92.8287 27.685 94.1782 27.685 94.1782C30.3387 95.6659 27.685 101.436 23.0518 102.859C18.4186 104.284 15.3827 95.5827 15.3827 95.5827C15.3827 95.5827 16.0892 90.3067 20.7762 89.9968Z" fill="#231F20"/>
<path d="M82.9837 230.001H66.2567C65.9122 229.805 65.6578 229.584 65.5071 229.332C64.6459 216.93 63.4052 210.959 63.4052 210.959L75.0548 210.487L77.6924 219.712C81.5949 222.371 86.2483 228.076 82.9837 230.001Z" fill="#231F20"/>
<path d="M64.9891 230.225H84.8192C85.3225 230.225 85.153 227.477 84.651 227.477L64.9393 227.588C64.4212 227.588 64.4723 230.227 64.9891 230.227V230.225Z" fill="#231F20"/>
<path d="M58.0789 97.921C60.7851 105.181 72.3029 138.442 69.0153 162.387C73.5382 178.312 72.1185 191.8 76.196 215.056L64.3242 215.68C59.4986 187.303 54.1885 192.719 52.6517 164.618C42.8698 142.584 37.7966 121.711 35.1926 100.22C32.6614 84.0193 52.614 75.5117 58.0789 97.921Z" fill="#002E73"/>
<path d="M64.4467 216.888C64.4467 216.888 63.5585 208.444 57.9725 192.312C56.2379 187.356 55.2986 184.074 54.8102 182.056C54.3203 180.013 54.2598 179.233 54.2598 179.233C57.2041 175.836 60.9411 170.72 64.2596 164.569C67.893 170.237 72.2154 175.906 72.2154 175.906C72.2154 175.906 72.3257 177.237 72.5222 179.417C73.3982 188.55 75.7532 212.691 77.1729 217.807C78.9277 224.14 67.889 227.744 64.4453 216.89L64.4467 216.888Z" fill="#231F20"/>
<path d="M72.5235 179.416C70.6261 177.304 67.2134 173.335 64.3579 168.998C63.0633 173.679 57.6267 179.347 54.8102 182.056C54.3203 180.013 54.2598 179.233 54.2598 179.233C57.2041 175.836 60.9411 170.72 64.2596 164.569C67.893 170.237 72.2154 175.906 72.2154 175.906C72.2154 175.906 72.3257 177.237 72.5222 179.417L72.5235 179.416Z" fill="#66B8FF"/>
<path d="M44.0379 100.998C43.1995 132.618 37.5449 159.476 37.5449 159.476C39.9389 181.048 34.4956 185.07 32.0356 215.932L21.3051 215.79C21.2781 203.263 20.5488 187.75 19.7858 162.634C13.0304 136.384 16.2843 117.05 18.8034 101.359C21.4908 83.535 45.7537 77.6365 44.0379 100.998Z" fill="#002E73"/>
<path d="M32.0369 215.932C32.9937 221.042 33.6814 225.028 33.279 229.652L7.29227 230.157C7.29227 230.157 4.7193 227.659 7.95435 223.914C11.1881 220.167 17.3298 222.335 21.3077 215.79L32.0383 215.932H32.0369Z" fill="#231F20"/>
<path d="M6.11076 230.225H33.7204C34.2237 230.225 34.0918 227.477 33.5885 227.477L6.09596 227.588C5.57787 227.588 5.59401 230.227 6.11076 230.227V230.225Z" fill="#231F20"/>
<path d="M37.1977 181.044C37.1977 181.044 37.012 181.962 36.6957 183.523C35.3891 190.338 31.8822 209.361 32.2926 217.921C27.4145 223.727 21.0736 217.279 21.0736 217.279L18.5181 170.26L18.3431 167.094C25.2237 174.712 32.3707 178.774 37.1977 181.045V181.044Z" fill="#231F20"/>
<path d="M37.1977 181.044C37.1977 181.044 37.012 181.962 36.6957 183.523C27.218 180.769 21.3817 174.298 18.5181 170.26L18.3431 167.094C25.2237 174.712 32.3707 178.774 37.1977 181.045V181.044Z" fill="#66B8FF"/>
<path d="M19.6041 99.5039C19.6041 104.972 58.5566 103.389 58.5566 97.9209C58.4261 88.8995 59.6749 81.4758 61.3772 75.3385C73.0551 63.9333 72.3594 55.0796 69.4002 50.2771C64.2973 41.9948 38.5178 42.4644 29.2366 46.0246C25.5507 47.4385 20.6013 53.1975 19.0187 62.3786C18.2046 67.0992 21.6913 72.5952 22.243 76.4117C23.5174 85.2426 19.8638 98.2362 19.6054 99.5039H19.6041Z" fill="#002E73"/>
<path d="M43.8872 49.7808C45.8088 48.2595 53.4753 45.9106 55.5154 44.2472L55.0551 30.98L47.5165 30.2489C45.3298 30.43 43.1444 30.9518 41.2644 31.6923L39.5675 40.428L39.1934 42.3222C38.3402 44.1868 40.0318 46.4351 43.8872 49.7821V49.7808Z" fill="#F7A594"/>
<path d="M52.5171 33.9836C51.3343 35.7973 46.3835 40.4428 39.5662 40.4267L41.0343 32.8688L52.5171 33.9836Z" fill="#E6836F"/>
<path d="M35.8331 16.5068C35.2424 19.12 34.0245 24.8588 34.2237 27.5015C34.5264 31.5246 38.2971 35.9877 41.5846 36.5726C45.3903 36.9589 50.52 35.8294 53.3056 33.4443C54.8559 31.6333 57.8568 27.3365 59.2375 23.5764C62.1172 15.7328 56.5568 8.85371 49.504 7.2654C42.4499 5.67709 37.6781 8.3587 35.8345 16.5082L35.8331 16.5068Z" fill="#F7A594"/>
<path d="M56.8731 28.7585C58.3439 26.1775 56.3887 25.1325 54.2463 27.1354C54.6123 25.1875 56.8395 19.4822 54.8667 17.5894C52.6382 15.3934 42.8321 16.3499 37.5651 10.874C37.5651 10.874 41.4918 2.29258 54.3782 7.36067C68.9332 15.054 56.8718 28.7585 56.8718 28.7585H56.8731Z" fill="#73382A"/>
<path d="M58.8569 29.428C59.9782 28.0825 60.0369 26.2875 58.9879 25.4188C57.9389 24.55 56.1795 24.9364 55.0582 26.2819C53.9368 27.6273 53.8782 29.4223 54.9272 30.2911C55.9762 31.1598 57.7356 30.7734 58.8569 29.428Z" fill="#F7A594"/>
<path d="M39.6227 39.662C40.9105 41.956 54.1629 40.7634 55.3592 38.8357L56.0953 46.1749L43.7634 53.1479L37.3215 46.0837L39.6227 39.662Z" fill="#002E73"/>
<path d="M61.4014 15.3062C61.0381 8.88188 48.5648 -0.183809 39.6186 3.18195C33.5832 5.45173 34.9989 11.8385 40.2538 13.0445C44.887 14.1083 57.7196 8.57066 61.4014 15.3062Z" fill="#231F20"/>
<path d="M38.5043 3.2021C38.5043 3.2021 38.7694 1.36965 39.7612 0C32.7609 4.57175 36.2449 10.0383 36.327 10.2717C39.1032 1.86733 45.728 2.25368 48.0803 2.28319C42.0274 -0.556712 38.5649 2.9499 38.5043 3.2021Z" fill="#231F20"/>
<path d="M19.1183 101.359C29.2796 105.728 52.7553 104.766 59.7717 101.419L61.5655 107.343C46.3013 110.931 31.6978 111.031 17.8345 107.231L19.1183 101.358V101.359Z" fill="#66B8FF"/>
<path d="M87.115 87.4669C80.3932 94.6491 66.2136 102.841 66.2136 102.841L61.863 96.5996C66.3751 94.1206 68.8606 87.6962 73.1655 83.2895C74.639 81.775 76.3198 80.5126 78.3451 79.6863C71.4847 77.9196 68.0317 76.2213 62.3232 65.8262C54.3352 65.2748 52.6087 54.8583 56.9593 50.9787C60.228 48.0651 68.469 45.0132 74.5004 54.6047C85.2741 60.64 89.8777 73.8106 90.4523 80.5126C90.9812 82.4175 89.5318 84.8724 87.115 87.4655V87.4669Z" fill="#002E73"/>
<path d="M65.7641 93.3318C65.7641 93.3318 60.8335 92.8824 59.1285 93.8818C57.7048 94.7175 58.2054 96.1837 58.2054 96.1837C55.3242 97.163 56.8745 103.318 61.1686 105.562C65.4627 107.806 70.0421 99.8057 70.0421 99.8057C70.0421 99.8057 70.3153 94.4895 65.7641 93.3304V93.3318Z" fill="#231F20"/>
<path d="M87.115 87.4668C86.7005 87.9028 86.2632 88.3616 85.803 88.7976C78.7125 95.6364 66.2137 102.841 66.2137 102.841L61.863 96.5996C65.7534 94.4653 68.1246 89.4173 71.4619 85.24C71.9907 84.5518 72.5667 83.9093 73.1655 83.2895C74.8463 84.2755 79.8644 86.9142 87.115 87.4655V87.4668Z" fill="#231F20"/>
<path d="M87.1149 87.4668C86.7004 87.9028 86.2631 88.3616 85.8029 88.7976C79.7257 88.4998 74.0173 86.3199 71.4618 85.24C71.9907 84.5518 72.5666 83.9093 73.1654 83.2895C74.8462 84.2755 79.8643 86.9142 87.1149 87.4655V87.4668Z" fill="#66B8FF"/>
<path d="M47.6403 60.709C47.6431 60.6849 47.6445 60.675 47.6445 60.6722C47.6445 60.6764 47.6403 60.709 47.6403 60.709Z" fill="#D9FFFF"/>
<path d="M47.6403 60.709C47.6431 60.6849 47.6445 60.675 47.6445 60.6722C47.6445 60.6764 47.6403 60.709 47.6403 60.709Z" fill="#D9FFFF"/>
<path d="M35.4724 58.9692C35.4724 58.9692 35.4767 58.9366 35.4767 58.9323C35.4767 58.9351 35.4753 58.9451 35.4724 58.9692Z" fill="#D9FFFF"/>
<path d="M35.4724 58.9692C35.4724 58.9692 35.4767 58.9366 35.4767 58.9323C35.4767 58.9351 35.4753 58.9451 35.4724 58.9692Z" fill="#D9FFFF"/>
<path d="M41.9816 56.1474C43.1927 58.0469 45.2853 59.7654 47.6322 60.7138C47.6106 60.8935 47.4936 61.8903 46.9512 66.4848C46.2286 72.614 40.6238 74.8315 39.7545 75.1709C39.0157 74.6504 34.0743 70.8768 34.7969 64.7463C35.3392 60.1517 35.4563 59.155 35.4778 58.9752C37.9674 58.719 40.3695 57.6431 41.9802 56.1474H41.9816Z" fill="white"/>
<path d="M41.3424 59.4031C41.3424 59.4031 41.3357 59.4085 41.3317 59.4112C40.1623 60.3328 38.6188 60.9713 36.973 61.2074L36.5114 65.1272C36.3001 66.9208 36.7563 68.6325 37.8665 70.2154C38.5649 71.2108 39.3387 71.8882 39.768 72.225C39.7868 72.2397 39.807 72.2558 39.8245 72.2692C40.3009 72.0774 41.2482 71.6347 42.1943 70.8338C43.6355 69.6158 44.4725 68.0892 44.6838 66.2956L45.1454 62.3758C43.6059 61.681 42.2575 60.6266 41.3397 59.4018L41.3424 59.4031Z" fill="#F7AF0C"/>
<path d="M38.0092 44.1238C38.6699 45.8167 40.8742 47.3098 43.361 48.7626C48.4114 47.9389 52.2857 46.3801 56.0765 44.1694C59.8054 44.1519 62.4874 45.582 65.2474 46.6377L43.2291 50.21L30.2957 45.3432C32.0155 44.7194 34.4781 44.2968 38.0078 44.1238H38.0092Z" fill="#66B8FF"/>
<path d="M113.655 89.6744C113.655 89.5652 113.653 89.518 113.653 89.5072C113.653 89.5274 113.655 89.6744 113.655 89.6744Z" fill="#D9FFFF"/>
<path d="M113.655 89.6744C113.655 89.5652 113.653 89.518 113.653 89.5072C113.653 89.5274 113.655 89.6744 113.655 89.6744Z" fill="#D9FFFF"/>
<path d="M48.6953 90.388C48.6953 90.388 48.694 90.241 48.694 90.2208C48.694 90.2316 48.694 90.2801 48.6953 90.388Z" fill="#D9FFFF"/>
<path d="M48.6953 90.388C48.6953 90.388 48.694 90.241 48.694 90.2208C48.694 90.2316 48.694 90.2801 48.6953 90.388Z" fill="#D9FFFF"/>
<path d="M80.9249 72.4718C88.5482 80.4683 100.672 86.9839 113.617 89.7098C113.627 90.567 113.679 95.3118 113.924 117.187C114.25 146.368 86.3561 160.812 82.0257 163.028C77.8029 161.133 49.367 147.079 49.0413 117.898C48.7977 96.0227 48.7439 91.2766 48.7345 90.4207C61.6155 87.4118 73.4818 80.6333 80.9262 72.4705L80.9249 72.4718Z" fill="white"/>
<path d="M81.0377 77.7451C88.4956 84.4444 98.8009 89.6816 110.114 92.4987L110.39 117.223C110.517 128.536 106.054 138.801 97.1296 147.733C91.265 153.601 85.0829 157.257 81.9434 158.904C81.8075 158.837 81.6581 158.761 81.5114 158.687L80.9745 77.8055C80.996 77.7854 81.0176 77.7666 81.0391 77.7478L81.0377 77.7451Z" fill="#007880"/>
<path d="M80.9732 77.8041L81.5101 158.686C78.2239 157.017 72.2477 153.561 66.511 148.068C57.3885 139.335 52.7001 129.171 52.5736 117.858L52.2977 93.1332C63.5128 90.0773 73.6714 84.6376 80.9732 77.8041Z" fill="#008F99"/>
<path d="M68.0881 113.526L68.216 132.681C68.2308 134.814 94.4745 134.642 94.4597 132.51L94.3319 113.355L68.0881 113.526ZM78.0167 120.692C78.0046 118.915 79.4404 117.472 81.2315 117.461C83.0227 117.449 84.4895 118.873 84.5002 120.651C84.5083 121.949 83.7265 123.083 82.6055 123.593L82.6418 129.034C82.6472 129.757 82.0578 130.362 81.3163 130.366C80.587 130.371 79.9908 129.774 79.9854 129.051L79.9491 123.622C78.8093 123.127 78.0234 122.004 78.0153 120.694L78.0167 120.692Z" fill="white"/>
<path d="M70.3759 112.146L73.0323 112.128L73.0242 110.839C72.9946 106.371 76.6347 102.71 81.1374 102.68C85.6414 102.651 89.33 106.262 89.3596 110.732L89.3677 112.021L92.0241 112.004L92.016 110.715C91.977 104.792 87.0894 100.006 81.1199 100.044C75.1517 100.083 70.3288 104.934 70.3678 110.857L70.3759 112.146Z" fill="white"/>
</svg>
