<svg id="Pin_Button" data-name="Pin Button" xmlns="http://www.w3.org/2000/svg" width="25" height="25" viewBox="0 0 25 25">
  <rect id="Rectangle_111" data-name="Rectangle 111" width="25" height="25" rx="4" fill="#239d48"/>
  <path id="Icon_metro-pin" data-name="Icon metro-pin" d="M18.156,15.744l-5.579-3.221A1.431,1.431,0,1,0,11.146,15l5.578,3.221a1.431,1.431,0,0,0,1.432-2.479Zm-4.6-3.483,4.339,2.505,1.476-4.107-3-1.729Zm-3.2,10.551,4.151-5.042L12.647,16.7ZM21.164,8.388,17.445,6.24A1.074,1.074,0,0,0,16.371,8.1l3.719,2.147a1.074,1.074,0,1,0,1.073-1.86Z" transform="translate(-2.529 -1.954)" fill="#fff"/>
</svg>
